<svg xmlns="http://www.w3.org/2000/svg" width="21" height="19" viewBox="0 0 21 19">
  <path id="Path_3448" data-name="Path 3448" d="M19.824,12.869h-.5V9.7A2.288,2.288,0,0,0,17.1,7.362h-.461l0-1.176a1.542,1.542,0,0,0-1.5-1.58H1.822A1.872,1.872,0,0,0,0,6.5V22.026a1.542,1.542,0,0,0,1.5,1.58H17.107a2.288,2.288,0,0,0,2.222-2.343V18.094h.5A1.206,1.206,0,0,0,21,16.859V14.1A1.212,1.212,0,0,0,19.824,12.869ZM1.822,5.7H15.147a.478.478,0,0,1,.465.486l0,1.18H1.822a.834.834,0,0,1,0-1.666ZM18.291,21.259A1.225,1.225,0,0,1,17.1,22.512H1.494a.479.479,0,0,1-.465-.49V8.26a1.737,1.737,0,0,0,.792.191H17.1A1.225,1.225,0,0,1,18.291,9.7v3.164H14.764A1.206,1.206,0,0,0,13.592,14.1v2.756a1.206,1.206,0,0,0,1.171,1.235h3.527v3.164Zm1.671-4.4a.14.14,0,0,1-.138.145H14.768a.14.14,0,0,1-.138-.145V14.1a.143.143,0,0,1,.138-.145h5.056a.143.143,0,0,1,.138.145v2.756Z" transform="translate(0 -4.606)" fill="rgba(51,51,51,0.5)"/>
</svg>
