<svg id="Group_190" data-name="Group 190" xmlns="http://www.w3.org/2000/svg" width="21" height="15" viewBox="0 0 21 15">
  <path id="Path_3450" data-name="Path 3450" d="M9.742,36.174a.539.539,0,0,0,0,1.076h1.972a.539.539,0,0,0,0-1.076Z" transform="translate(-6.247 -27.43)" fill="rgba(51,51,51,0.5)"/>
  <path id="Path_3451" data-name="Path 3451" d="M36.5,37.251h1.972a.539.539,0,0,0,0-1.076H36.5a.539.539,0,0,0,0,1.076Z" transform="translate(-24.362 -27.43)" fill="rgba(51,51,51,0.5)"/>
  <path id="Path_3452" data-name="Path 3452" d="M19.61,10.354H4.68a1.428,1.428,0,0,0-1.39,1.457v2.112H1.027A1.055,1.055,0,0,0,0,15v9.278a1.055,1.055,0,0,0,1.027,1.076H16.684a1.055,1.055,0,0,0,1.027-1.076V21.785h1.9A1.428,1.428,0,0,0,21,20.328v-8.52A1.427,1.427,0,0,0,19.61,10.354ZM13.809,15a3.24,3.24,0,0,0,2.875,3.045v3.22a3.236,3.236,0,0,0-2.9,3.013H3.9a3.24,3.24,0,0,0-2.875-3.045v-3.22A3.236,3.236,0,0,0,3.931,15Zm1.027,0h1.844v1.964A2.2,2.2,0,0,1,14.836,15ZM2.9,15a2.182,2.182,0,0,1-1.874,1.933V15H2.9ZM1.027,22.314A2.186,2.186,0,0,1,2.87,24.278H1.027Zm13.783,1.96a2.182,2.182,0,0,1,1.874-1.933v1.933Zm5.159-3.946a.372.372,0,0,1-.364.381h-1.9V15a1.055,1.055,0,0,0-1.027-1.076H4.312V11.812a.372.372,0,0,1,.364-.381h14.93a.372.372,0,0,1,.364.381Z" transform="translate(0 -10.354)" fill="rgba(51,51,51,0.5)"/>
  <path id="Path_3453" data-name="Path 3453" d="M22.953,31.432h.877a.471.471,0,0,1,0,.942H22.255a.539.539,0,0,0,0,1.076h.625v.435a.514.514,0,1,0,1.027,0V33.45a1.549,1.549,0,0,0-.077-3.09h-.877a.471.471,0,0,1,0-.942H24.5a.539.539,0,0,0,0-1.076H23.9V27.92a.514.514,0,1,0-1.027,0v.426a1.547,1.547,0,0,0,.077,3.085Z" transform="translate(-14.538 -21.616)" fill="rgba(51,51,51,0.5)"/>
</svg>
