<svg id="local_shipping-24px" xmlns="http://www.w3.org/2000/svg" width="32" height="32" viewBox="0 0 32 32">
  <path id="Path_3403" data-name="Path 3403" d="M0,0H32V32H0Z" fill="none"/>
  <path id="Path_3404" data-name="Path 3404" d="M26.909,10H22.818V4H3.727A2.882,2.882,0,0,0,1,7V23.5H3.727A4.3,4.3,0,0,0,7.818,28a4.3,4.3,0,0,0,4.091-4.5h8.182A4.3,4.3,0,0,0,24.182,28a4.3,4.3,0,0,0,4.091-4.5H31V16ZM7.818,25.75a2.26,2.26,0,0,1,0-4.5,2.26,2.26,0,0,1,0,4.5Zm18.409-13.5L28.9,16H22.818V12.25Zm-2.045,13.5a2.26,2.26,0,1,1,2.045-2.25A2.152,2.152,0,0,1,24.182,25.75Z" fill="#eda762"/>
</svg>
