<svg xmlns="http://www.w3.org/2000/svg" width="210" height="90" viewBox="0 0 210 90">
  <g id="Group_45" data-name="Group 45" transform="translate(3392.678 -5390.536)">
    <g id="Group_42" data-name="Group 42" transform="translate(-3392.678 5390.536)">
      <path id="Path_3360" data-name="Path 3360" d="M-3392.678,5465.536v45l38.968,22.5v-45Z" transform="translate(3392.678 -5443.036)" fill="#be864e"/>
      <path id="Path_3361" data-name="Path 3361" d="M-3374.122,5572.285h0l13.748,7.938a9.391,9.391,0,0,0,14.086-8.133h0a27.481,27.481,0,0,0-3.685-13.75Z" transform="translate(3379.689 -5508)" fill="#ccc"/>
      <path id="Path_3362" data-name="Path 3362" d="M-3360.037,5505.812l-14.085-8.131v32.142l24.15-13.944A27.484,27.484,0,0,0-3360.037,5505.812Z" transform="translate(3379.689 -5465.538)" fill="#fff"/>
      <path id="Path_3363" data-name="Path 3363" d="M-3347.048,5520.825l-2.941-1.7-5.577,3.208v19.286l8.4,4.851a5.48,5.48,0,0,0,5.542-.007l.02-.01.02-.012.019-.01.019-.012.02-.01.019-.012.019-.011.019-.011.02-.011.02-.012.02-.01.019-.012.019-.012.02-.01.019-.012.019-.01.02-.012.019-.011.02-.011.019-.011.02-.011.019-.011.02-.012.019-.012.019-.01.02-.012.019-.01.019-.012.02-.011.02-.011.019-.011.019-.011.02-.011.019-.012.019-.012.02-.01.019-.012.02-.01.02-.012.019-.01.02-.012.02-.011.019-.011.02-.011.019-.012.02-.012.019-.01.019-.012.02-.01.019-.012.02-.01.019-.012.02-.011.019-.011.019-.011.02-.012.019-.012.02-.01.019-.012.02-.01.019-.012.02-.01.019-.012.019-.011.02-.011.019-.011.019-.012.02-.01.02-.012.019-.012.02-.01.019-.012.02-.01.02-.012.019-.011.02-.011.019-.011.02-.011.019-.011.019-.012.02-.012.019-.01.02-.012.019-.01.019-.012.02-.011.019-.011.02-.011.019-.011.02-.011.019-.012.02-.012.019-.01.02-.012.019-.01.019-.012.02-.01.019-.012.019-.011.019-.011.019-.011.02-.012.019-.012.019-.01.02-.012.02-.011.019-.012.02-.01.019-.012.019-.011.02-.011.019-.011.02-.012.019-.012.019-.01.02-.012.02-.01.019-.012.019-.01.02-.012.02-.011.019-.011.02-.011.019-.011.02-.012.019-.01.02-.012.019-.01.02-.012.019-.01.019-.012.02-.011.02-.011.019-.011.02-.011.019-.011.02-.012.02-.012.019-.01.019-.012.019-.01.02-.012.02-.01.019-.012.02-.011.019-.011.02-.011.019-.012.019-.012.02-.01.019-.012.019-.01.02-.012.019-.01.019-.012.02-.011.019-.011.019-.011.02-.012.019-.012.02-.01.019-.012.019-.01.02-.012.02-.01.019-.012.019-.011.019-.011.02-.011.019-.012.02-.012.019-.01.02-.012.019-.01.02-.012.019-.01.02-.012.019-.011.019-.011.02-.011.02-.011.019-.011.019-.012.02-.012.019-.011.02-.012.019-.01.019-.012.02-.011.019-.011.02-.011.019-.011.02-.012.019-.01.02-.012.02-.011.019-.012.02-.01.019-.012.019-.011.019-.011.02-.011.019-.011.02-.012.019-.01.02-.012.02-.01.019-.012.019-.01.019-.012.02-.01.02-.012.019-.011.02-.011.019-.011.02-.012.019-.012.019-.01.02-.012.02-.011.019-.012.019-.01.02-.012.019-.011.02-.011.019-.011.019-.012.02-.012.019-.01.02-.012.019-.011.02-.012.019-.01.019-.012.02-.011.02-.011.019-.011.02-.011.02-.012.019-.01.02-.012.019-.01.02-.012.02-.01.019-.012.02-.011.019-.011.02-.011.019-.011.02-.012.019-.01.019-.012.02-.01.019-.012.02-.01.019-.012.019-.01.02-.012.019-.011.02-.012.019-.012.02-.01.019-.012.019-.011.02-.012.019-.01.02-.012.02-.011.019-.011.019-.011.02-.011.019-.012.019-.01.019-.012.02-.01.02-.012.019-.01.02-.012.019-.011.02-.011.019-.011.019-.011.02-.012.019-.01.02-.012.019-.01.02-.012.019-.01.02-.012.019-.01.019-.012.02-.011.019-.011.019-.011.02-.012.019-.012.02-.01.02-.012.019-.011a5.537,5.537,0,0,0,2.248-2.424A27.5,27.5,0,0,0-3347.048,5520.825Z" transform="translate(3366.699 -5480.55)" fill="#e6e6e6"/>
      <path id="Path_3364" data-name="Path 3364" d="M-3355.566,5529.821v19.286l8.4,4.851a5.533,5.533,0,0,0,8.3-4.792h0a16.806,16.806,0,0,0-8.4-14.553Z" transform="translate(3366.699 -5488.035)" fill="#be864e"/>
      <path id="Path_3365" data-name="Path 3365" d="M-3262.785,5533.036l38.967-22.5v-45l-38.967,22.5Z" transform="translate(3301.753 -5443.036)" fill="#eda762"/>
      <path id="Path_3366" data-name="Path 3366" d="M-3216.4,5523.393l-8.35-4.821,8.35-14.464v-6.429l-5.566,3.214-8.351,14.465-8.35-4.822-5.567,3.214,27.834,16.072Z" transform="translate(3288.764 -5465.536)" fill="#fff"/>
      <path id="Path_3367" data-name="Path 3367" d="M-3244.229,5551.25h0v6.428l8.35,4.822-8.35,14.465v6.428l5.567-3.215,8.35-14.463,8.351,4.821,5.566-3.215h0Z" transform="translate(3288.764 -5503.037)" fill="#e6e6e6"/>
      <path id="Path_3368" data-name="Path 3368" d="M-3392.678,5413.036l38.968-22.5,38.968,22.5-38.968,22.5Z" transform="translate(3392.678 -5390.536)" fill="#d59658"/>
      <path id="Path_3369" data-name="Path 3369" d="M-3281.342,5444.108v6.429l5.567,3.213,11.134,6.429,5.566-3.213Z" transform="translate(3314.742 -5428.037)" fill="#e6e6e6"/>
      <path id="Path_3370" data-name="Path 3370" d="M-3318.454,5465.536v6.429l16.7,9.642,5.567-3.213-5.567-3.215Z" transform="translate(3340.721 -5443.036)" fill="#e6e6e6"/>
      <path id="Path_3371" data-name="Path 3371" d="M-3338.865,5424.821l5.567,3.215v-6.429l5.567-3.214v-6.428l-27.834,16.072,11.134,6.428v-6.428Z" transform="translate(3366.699 -5405.536)" fill="#fff"/>
      <path id="Path_3372" data-name="Path 3372" d="M-3240.518,5431.25l5.566-3.213-27.834-16.072v6.428Z" transform="translate(3301.753 -5405.536)" fill="#e6e6e6"/>
      <path id="Path_3373" data-name="Path 3373" d="M-3334.227,5492.322l-2.783,1.607,5.567,3.214,2.783-1.606Z" transform="translate(3353.711 -5461.786)" fill="#a67545"/>
      <path id="Path_3374" data-name="Path 3374" d="M-3213.611,5422.679l-2.784,1.607,5.566,3.214,2.784-1.607Z" transform="translate(3269.28 -5413.036)" fill="#a67545"/>
      <path id="Path_3375" data-name="Path 3375" d="M-3331.443,5500.893l-5.567-3.214,0,3.217,5.562,3.212Z" transform="translate(3353.711 -5465.536)" fill="#8e643b"/>
      <path id="Path_3376" data-name="Path 3376" d="M-3216.4,5495.538l2.783,1.606,5.567-3.214-2.784-1.607Z" transform="translate(3269.28 -5461.786)" fill="#a67545"/>
      <path id="Path_3377" data-name="Path 3377" d="M-3337.01,5425.893l2.783,1.607,5.566-3.214-2.783-1.607Z" transform="translate(3353.711 -5413.036)" fill="#a67545"/>
      <path id="Path_3378" data-name="Path 3378" d="M-3201.55,5497.679l-5.567,3.214v3.215l5.567-3.215Z" transform="translate(3262.785 -5465.536)" fill="#be864e"/>
      <g id="Group_41" data-name="Group 41" transform="translate(26.947 75.088)">
        <path id="Path_3379" data-name="Path 3379" d="M-3292.617,5646.741v5.912l-10.237-5.912v-5.911Z" transform="translate(3302.854 -5640.83)" fill="#ccc"/>
        <g id="Group_40" data-name="Group 40" transform="translate(1.061 3.475)">
          <path id="Path_3380" data-name="Path 3380" d="M-3299.173,5657.333c-.2-.338-.2-.7,0-.817s.513.073.708.409.2.706,0,.817S-3298.978,5657.67-3299.173,5657.333Z" transform="translate(3299.319 -5655.262)" fill="#333"/>
          <path id="Path_3381" data-name="Path 3381" d="M-3292.355,5653.25l.761.439v3.407l-.761-.44v-.4c-.23.2-.549.18-.961-.058a2.783,2.783,0,0,1-1.015-1.1,3.17,3.17,0,0,1-.418-1.523,1.155,1.155,0,0,1,.418-1.032.92.92,0,0,1,1.015.062,2.4,2.4,0,0,1,.961,1.053Zm-.82,2.19a.571.571,0,0,0,.584.071.59.59,0,0,0,.236-.559,1.6,1.6,0,0,0-.236-.824,1.567,1.567,0,0,0-.584-.609.553.553,0,0,0-.584-.066.59.59,0,0,0-.23.555,1.668,1.668,0,0,0,.23.828A1.594,1.594,0,0,0-3293.175,5655.441Z" transform="translate(3296.121 -5652.413)" fill="#333"/>
          <path id="Path_3382" data-name="Path 3382" d="M-3281.357,5660.988l1.31.756v.824l-2.33-1.346v-.585l1.245-1.277-1.186-.686v-.824l2.212,1.278v.585Z" transform="translate(3287.46 -5656.22)" fill="#333"/>
        </g>
      </g>
    </g>
    <g id="Group_44" data-name="Group 44" transform="translate(-3299.347 5412.209)">
      <path id="Path_3383" data-name="Path 3383" d="M-2992.56,5493.506c.175,1.867,1.406,2.786,3.687,2.786a4.717,4.717,0,0,0,3.581-1.483l2.769,1.779a8.9,8.9,0,0,1-7.02,3.17,6.7,6.7,0,0,1-5.5-2.222,6.6,6.6,0,0,1-1.236-5.6,9.334,9.334,0,0,1,3.176-5.571,8.856,8.856,0,0,1,6.027-2.252,5.821,5.821,0,0,1,4.966,2.252,6.793,6.793,0,0,1,1.151,5.571,10.852,10.852,0,0,1-.425,1.571Zm8.02-2.964a2.9,2.9,0,0,0-3.147-2.992,4.58,4.58,0,0,0-4.41,2.992Z" transform="translate(3021.974 -5477.711)" fill="#eda762"/>
      <path id="Path_3384" data-name="Path 3384" d="M-2940.336,5484.41l3.814-21.633h3.823l-3.814,21.633Z" transform="translate(2982.708 -5462.777)" fill="#eda762"/>
      <path id="Path_3385" data-name="Path 3385" d="M-2915.937,5485.169l2.613-14.817h3.822l-2.613,14.817Zm2.895-18.936a2.982,2.982,0,0,1,2.759-2.371,1.953,1.953,0,0,1,1.953,2.371,2.953,2.953,0,0,1-2.783,2.341A1.927,1.927,0,0,1-2913.042,5466.234Z" transform="translate(2965.629 -5463.537)" fill="#eda762"/>
      <path id="Path_3386" data-name="Path 3386" d="M-2876.953,5485.5h4.209l-8.243,14.817h-4.356l-3.018-14.817h4.208l1.757,10.372Z" transform="translate(2946.326 -5478.68)" fill="#eda762"/>
      <path id="Path_3387" data-name="Path 3387" d="M-2835.694,5493.506c.175,1.867,1.406,2.786,3.687,2.786a4.717,4.717,0,0,0,3.581-1.483l2.768,1.779a8.9,8.9,0,0,1-7.02,3.17,6.705,6.705,0,0,1-5.5-2.222,6.6,6.6,0,0,1-1.235-5.6,9.334,9.334,0,0,1,3.176-5.571,8.858,8.858,0,0,1,6.028-2.252,5.822,5.822,0,0,1,4.967,2.252,6.8,6.8,0,0,1,1.151,5.571,10.981,10.981,0,0,1-.425,1.571Zm8.02-2.964a2.9,2.9,0,0,0-3.147-2.992,4.58,4.58,0,0,0-4.41,2.992Z" transform="translate(2912.168 -5477.711)" fill="#eda762"/>
      <path id="Path_3388" data-name="Path 3388" d="M-2777.485,5487.354a5.592,5.592,0,0,1,5.006-2.845l-.752,4.268a4.946,4.946,0,0,0-3.267.711,4.17,4.17,0,0,0-1.9,3.053l-1.249,7.082h-3.823l2.613-14.817h3.823Z" transform="translate(2872.903 -5477.99)" fill="#eda762"/>
      <path id="Path_3389" data-name="Path 3389" d="M-2736.14,5485.5h4.089l-8.006,14.817c-2.293,4.267-5.112,6.135-8.868,5.926l.627-3.556c2.039.03,3.317-.83,4.383-2.844l-3.546-14.343h4.178l2.1,9.958Z" transform="translate(2848.72 -5478.68)" fill="#eda762"/>
      <path id="Path_3390" data-name="Path 3390" d="M-3069.9,5497.349h-11.678l.679-3.853h11.678Z" transform="translate(3081.577 -5484.281)" fill="#eda762"/>
      <path id="Path_3391" data-name="Path 3391" d="M-3049.512,5468.731a7.87,7.87,0,0,0-6.584-2.993h-11.389l-.689,3.913h11.389a4.743,4.743,0,0,1,4.067,1.808,5.671,5.671,0,0,1,.868,4.652,7.954,7.954,0,0,1-2.514,4.682,6.837,6.837,0,0,1-4.7,1.779h-8.157l-.69,3.913h8.157a11.241,11.241,0,0,0,7.64-2.994,12.366,12.366,0,0,0,4.175-7.379A8.853,8.853,0,0,0-3049.512,5468.731Z" transform="translate(3072.196 -5464.85)" fill="#eda762"/>
      <g id="Group_43" data-name="Group 43" transform="translate(0 25.128)">
        <path id="Path_3392" data-name="Path 3392" d="M-2964.39,5567.191a6.771,6.771,0,0,1,1.157,5.542,9.521,9.521,0,0,1-3.116,5.572,8,8,0,0,1-5.494,2.251,4.726,4.726,0,0,1-4.419-2.163l-1.353,7.675h-3.823l3.658-20.744h3.823l-.309,1.749a6.843,6.843,0,0,1,5.182-2.163A5.558,5.558,0,0,1-2964.39,5567.191Zm-7.522,9.72a4.7,4.7,0,0,0,3.138-1.156,4.971,4.971,0,0,0,1.718-3.023,3.449,3.449,0,0,0-.658-2.993,3.252,3.252,0,0,0-2.725-1.186,4.609,4.609,0,0,0-3.143,1.186,4.939,4.939,0,0,0-1.683,2.993,3.647,3.647,0,0,0,.623,3.023A3.336,3.336,0,0,0-2971.912,5576.911Z" transform="translate(3011.48 -5559.398)" fill="#333"/>
        <path id="Path_3393" data-name="Path 3393" d="M-2910.132,5568.149a5.591,5.591,0,0,1,5.006-2.845l-.753,4.267a4.961,4.961,0,0,0-3.267.711,4.173,4.173,0,0,0-1.9,3.052l-1.249,7.083h-3.823l2.613-14.818h3.823Z" transform="translate(2965.756 -5559.674)" fill="#333"/>
        <path id="Path_3394" data-name="Path 3394" d="M-2877.66,5574.3c.174,1.866,1.405,2.785,3.687,2.785a4.714,4.714,0,0,0,3.58-1.481l2.769,1.779a8.9,8.9,0,0,1-7.019,3.17,6.708,6.708,0,0,1-5.506-2.222,6.6,6.6,0,0,1-1.235-5.6,9.332,9.332,0,0,1,3.175-5.572,8.866,8.866,0,0,1,6.027-2.251,5.827,5.827,0,0,1,4.967,2.251,6.8,6.8,0,0,1,1.151,5.572,10.957,10.957,0,0,1-.426,1.571Zm8.02-2.963a2.9,2.9,0,0,0-3.146-2.993,4.58,4.58,0,0,0-4.41,2.993Z" transform="translate(2941.544 -5559.398)" fill="#333"/>
        <path id="Path_3395" data-name="Path 3395" d="M-2820.676,5571.162c2.085.445,4.717,1.482,4.129,4.652a5.051,5.051,0,0,1-2.34,3.527,8.2,8.2,0,0,1-4.452,1.214c-3.052,0-4.918-1.185-5.6-3.526l3.648-1.867a2.242,2.242,0,0,0,2.565,1.926c1.364,0,2.118-.414,2.269-1.274.141-.8-.966-1.244-2.409-1.629-2.094-.564-4.688-1.482-4.144-4.564a5.082,5.082,0,0,1,2.206-3.437,7.28,7.28,0,0,1,4.255-1.274,5.123,5.123,0,0,1,5.077,3.141l-3.573,1.777a1.983,1.983,0,0,0-2.1-1.512,1.8,1.8,0,0,0-1.933,1.215C-2823.226,5570.333-2822.119,5570.777-2820.676,5571.162Z" transform="translate(2904.731 -5559.398)" fill="#333"/>
        <path id="Path_3396" data-name="Path 3396" d="M-2777.8,5571.162c2.084.445,4.717,1.482,4.128,4.652a5.05,5.05,0,0,1-2.341,3.527,8.2,8.2,0,0,1-4.452,1.214c-3.052,0-4.917-1.185-5.6-3.526l3.648-1.867a2.242,2.242,0,0,0,2.565,1.926c1.363,0,2.118-.414,2.269-1.274.141-.8-.965-1.244-2.409-1.629-2.094-.564-4.688-1.482-4.144-4.564a5.08,5.08,0,0,1,2.207-3.437,7.277,7.277,0,0,1,4.254-1.274,5.123,5.123,0,0,1,5.077,3.141l-3.573,1.777a1.983,1.983,0,0,0-2.1-1.512,1.8,1.8,0,0,0-1.933,1.215C-2780.354,5570.333-2779.247,5570.777-2777.8,5571.162Z" transform="translate(2874.722 -5559.398)" fill="#333"/>
        <path id="Path_3397" data-name="Path 3397" d="M-3076.8,5563.369h8.742l-.69,3.911h-12.832l3.657-20.745h12.684l-.69,3.912h-8.594l-.779,4.416h7.853l-.679,3.853h-7.853Z" transform="translate(3081.577 -5546.536)" fill="#333"/>
        <path id="Path_3398" data-name="Path 3398" d="M-3019.889,5581.108h-4.415l-2.406-4.5-4.025,4.5h-4.416l6.756-7.557-3.906-7.26h4.415l2.256,4.179,3.73-4.179h4.386l-6.461,7.231Z" transform="translate(3049.079 -5560.363)" fill="#333"/>
      </g>
    </g>
  </g>
</svg>
