<svg id="Group_3" data-name="Group 3" xmlns="http://www.w3.org/2000/svg" width="48.493" height="56" viewBox="0 0 48.493 56">
  <path id="Path_3263" data-name="Path 3263" d="M-113.706-496.838v28l24.247,14v-28Z" transform="translate(113.706 510.838)" fill="#be864e"/>
  <path id="Path_3264" data-name="Path 3264" d="M-88.965-364.422h0l8.554,4.939a5.843,5.843,0,0,0,8.765-5.06h0a17.1,17.1,0,0,0-2.292-8.555Z" transform="translate(92.429 404.422)" fill="#ccc"/>
  <path id="Path_3265" data-name="Path 3265" d="M-80.2-448.921l-8.764-5.06v20l15.027-8.676A17.1,17.1,0,0,0-80.2-448.921Z" transform="translate(92.429 473.981)" fill="#fff"/>
  <path id="Path_3266" data-name="Path 3266" d="M-58.923-424.328l-1.83-1.057-3.47,2v12L-59-408.37a3.411,3.411,0,0,0,3.449,0l3.6-2.08a3.445,3.445,0,0,0,1.4-1.508A17.112,17.112,0,0,0-58.923-424.328Z" transform="translate(71.151 449.388)" fill="#e6e6e6"/>
  <path id="Path_3267" data-name="Path 3267" d="M-64.223-411.124v12L-59-396.106a3.443,3.443,0,0,0,5.164-2.982h0a10.456,10.456,0,0,0-5.228-9.055Z" transform="translate(71.151 437.124)" fill="#be864e"/>
  <path id="Path_3268" data-name="Path 3268" d="M59.484-454.838l24.247-14v-28l-24.247,14Z" transform="translate(-35.237 510.838)" fill="#eda762"/>
  <path id="Path_3269" data-name="Path 3269" d="M101.544-437.981l-5.2-3,5.2-9v-4l-3.464,2-5.2,9-5.2-3-3.464,2,17.319,10Z" transform="translate(-56.515 473.981)" fill="#fff"/>
  <path id="Path_3270" data-name="Path 3270" d="M84.225-382.552h0v4l5.2,3-5.2,9v4l3.464-2,5.2-9,5.2,3,3.464-2h0Z" transform="translate(-56.515 412.552)" fill="#e6e6e6"/>
  <path id="Path_3271" data-name="Path 3271" d="M-113.706-582.838l24.247-14,24.247,14-24.247,14Z" transform="translate(113.706 596.838)" fill="#d59658"/>
  <path id="Path_3272" data-name="Path 3272" d="M34.743-525.409v4l3.464,2,6.928,4,3.464-2Z" transform="translate(-13.96 535.409)" fill="#e6e6e6"/>
  <path id="Path_3273" data-name="Path 3273" d="M-14.74-496.838v4l10.391,6,3.464-2-3.464-2Z" transform="translate(28.596 510.838)" fill="#e6e6e6"/>
  <path id="Path_3274" data-name="Path 3274" d="M-53.832-560.266l3.464,2v-4l3.464-2v-4l-17.319,10,6.928,4v-4Z" transform="translate(71.151 572.267)" fill="#fff"/>
  <path id="Path_3275" data-name="Path 3275" d="M73.339-556.267l3.464-2-17.319-10v4Z" transform="translate(-35.237 572.267)" fill="#e6e6e6"/>
  <path id="Path_3276" data-name="Path 3276" d="M-37.75-461.124l-1.732,1,3.464,2,1.732-1Z" transform="translate(49.873 480.124)" fill="#a67545"/>
  <path id="Path_3277" data-name="Path 3277" d="M123.069-553.981l-1.732,1,3.464,2,1.732-1Z" transform="translate(-88.431 559.981)" fill="#a67545"/>
  <path id="Path_3278" data-name="Path 3278" d="M-36.018-451.981l-3.464-2,0,2,3.461,2Z" transform="translate(49.873 473.981)" fill="#8e643b"/>
  <path id="Path_3279" data-name="Path 3279" d="M121.338-459.124l1.732,1,3.464-2-1.732-1Z" transform="translate(-88.431 480.124)" fill="#a67545"/>
  <path id="Path_3280" data-name="Path 3280" d="M-39.482-551.981l1.732,1,3.464-2-1.732-1Z" transform="translate(49.873 559.981)" fill="#a67545"/>
  <path id="Path_3281" data-name="Path 3281" d="M137.172-453.981l-3.464,2v2l3.464-2Z" transform="translate(-99.07 473.981)" fill="#be864e"/>
  <g id="Group_2" data-name="Group 2" transform="translate(16.767 46.722)">
    <path id="Path_3282" data-name="Path 3282" d="M12.428-259.434v3.678l-6.37-3.678v-3.678Z" transform="translate(-6.058 263.111)" fill="#ccc"/>
    <g id="Group_1" data-name="Group 1" transform="translate(0.66 2.162)">
      <path id="Path_3283" data-name="Path 3283" d="M10.863-241.714c-.121-.21-.121-.439,0-.508s.319.045.44.254.121.439,0,.509S10.985-241.5,10.863-241.714Z" transform="translate(-10.772 243.002)" fill="#333"/>
      <path id="Path_3284" data-name="Path 3284" d="M18.354-247.147l.473.273v2.119l-.473-.274v-.25c-.143.125-.341.112-.6-.036a1.729,1.729,0,0,1-.632-.687,1.971,1.971,0,0,1-.26-.947.718.718,0,0,1,.26-.642.572.572,0,0,1,.632.038,1.494,1.494,0,0,1,.6.655Zm-.51,1.362a.356.356,0,0,0,.363.045.368.368,0,0,0,.147-.348,1,1,0,0,0-.147-.513.976.976,0,0,0-.363-.379.344.344,0,0,0-.363-.04.367.367,0,0,0-.143.345,1.039,1.039,0,0,0,.143.515A1,1,0,0,0,17.844-245.784Z" transform="translate(-16.011 247.668)" fill="#333"/>
      <path id="Path_3285" data-name="Path 3285" d="M34-238.466l.815.471v.513l-1.45-.838v-.364l.774-.795-.738-.426v-.513l1.376.8v.365Z" transform="translate(-30.199 241.433)" fill="#333"/>
    </g>
  </g>
</svg>
