<svg id="Group_28" data-name="Group 28" xmlns="http://www.w3.org/2000/svg" width="20" height="20" viewBox="0 0 20 20">
  <path id="Path_3353" data-name="Path 3353" d="M27.609,2V22h20V2ZM45.834,20.226H29.383V3.774H45.834Z" transform="translate(-27.609 -2)"/>
  <path id="Path_3354" data-name="Path 3354" d="M37.609,6.847A5.153,5.153,0,1,0,42.762,12,5.159,5.159,0,0,0,37.609,6.847Zm0,8.532A3.379,3.379,0,1,1,40.988,12,3.383,3.383,0,0,1,37.609,15.379Z" transform="translate(-27.609 -2)"/>
  <path id="Path_3355" data-name="Path 3355" d="M42.978,5.342a1.3,1.3,0,0,0,0,2.6,1.3,1.3,0,1,0,0-2.6Z" transform="translate(-27.609 -2)"/>
</svg>
