<svg width="20" height="20" viewBox="0 0 20 20" fill="none" xmlns="http://www.w3.org/2000/svg">
<path d="M11 0.0297852V0.0497851V2.04979C15.39 2.58979 18.5 6.57979 17.96 10.9698C17.5 14.6098 14.64 17.4998 11 17.9298V19.9298C16.5 19.3798 20.5 14.4998 19.95 8.99979C19.5 4.24979 15.73 0.499785 11 0.0297852ZM8.99999 0.0597851C7.04999 0.249785 5.18999 0.999785 3.66999 2.25979L5.09999 3.73978C6.21999 2.83979 7.56999 2.25979 8.99999 2.05979V0.0597851ZM2.25999 3.66979C0.999988 5.18979 0.249988 7.03979 0.0499878 8.99979H2.04999C2.23999 7.57979 2.79999 6.22978 3.68999 5.09978L2.25999 3.66979ZM13.5 6.49979L8.61999 11.3798L6.49999 9.25979L5.43999 10.3198L8.61999 13.4998L14.56 7.55979L13.5 6.49979ZM0.0599878 10.9998C0.259988 12.9598 1.02999 14.8098 2.26999 16.3298L3.68999 14.8998C2.80999 13.7698 2.23999 12.4198 2.05999 10.9998H0.0599878ZM5.09999 16.3698L3.66999 17.7398C5.17999 18.9998 7.03999 19.7898 8.99999 19.9998V17.9998C7.57999 17.8198 6.22999 17.2498 5.09999 16.3698Z" fill="#E62150"/>
</svg>
