<svg xmlns="http://www.w3.org/2000/svg" width="119" height="56" viewBox="0 0 119 56">
  <g id="Group_6" data-name="Group 6" transform="translate(113.706 596.838)">
    <g id="Group_3" data-name="Group 3" transform="translate(-113.706 -596.838)">
      <path id="Path_3263" data-name="Path 3263" d="M-113.706-496.838v28l24.247,14v-28Z" transform="translate(113.706 510.838)" fill="#be864e"/>
      <path id="Path_3264" data-name="Path 3264" d="M-88.965-364.422h0l8.554,4.939a5.843,5.843,0,0,0,8.765-5.06h0a17.1,17.1,0,0,0-2.292-8.555Z" transform="translate(92.429 404.422)" fill="#ccc"/>
      <path id="Path_3265" data-name="Path 3265" d="M-80.2-448.921l-8.764-5.06v20l15.027-8.676A17.1,17.1,0,0,0-80.2-448.921Z" transform="translate(92.429 473.981)" fill="#fff"/>
      <path id="Path_3266" data-name="Path 3266" d="M-58.923-424.328l-1.83-1.057-3.47,2v12L-59-408.37a3.411,3.411,0,0,0,3.449,0l3.6-2.08a3.445,3.445,0,0,0,1.4-1.508A17.112,17.112,0,0,0-58.923-424.328Z" transform="translate(71.151 449.388)" fill="#e6e6e6"/>
      <path id="Path_3267" data-name="Path 3267" d="M-64.223-411.124v12L-59-396.106a3.443,3.443,0,0,0,5.164-2.982h0a10.456,10.456,0,0,0-5.228-9.055Z" transform="translate(71.151 437.124)" fill="#be864e"/>
      <path id="Path_3268" data-name="Path 3268" d="M59.484-454.838l24.247-14v-28l-24.247,14Z" transform="translate(-35.237 510.838)" fill="#eda762"/>
      <path id="Path_3269" data-name="Path 3269" d="M101.544-437.981l-5.2-3,5.2-9v-4l-3.464,2-5.2,9-5.2-3-3.464,2,17.319,10Z" transform="translate(-56.515 473.981)" fill="#fff"/>
      <path id="Path_3270" data-name="Path 3270" d="M84.225-382.552h0v4l5.2,3-5.2,9v4l3.464-2,5.2-9,5.2,3,3.464-2h0Z" transform="translate(-56.515 412.552)" fill="#e6e6e6"/>
      <path id="Path_3271" data-name="Path 3271" d="M-113.706-582.838l24.247-14,24.247,14-24.247,14Z" transform="translate(113.706 596.838)" fill="#d59658"/>
      <path id="Path_3272" data-name="Path 3272" d="M34.743-525.409v4l3.464,2,6.928,4,3.464-2Z" transform="translate(-13.96 535.409)" fill="#e6e6e6"/>
      <path id="Path_3273" data-name="Path 3273" d="M-14.74-496.838v4l10.391,6,3.464-2-3.464-2Z" transform="translate(28.596 510.838)" fill="#e6e6e6"/>
      <path id="Path_3274" data-name="Path 3274" d="M-53.832-560.266l3.464,2v-4l3.464-2v-4l-17.319,10,6.928,4v-4Z" transform="translate(71.151 572.267)" fill="#fff"/>
      <path id="Path_3275" data-name="Path 3275" d="M73.339-556.267l3.464-2-17.319-10v4Z" transform="translate(-35.237 572.267)" fill="#e6e6e6"/>
      <path id="Path_3276" data-name="Path 3276" d="M-37.75-461.124l-1.732,1,3.464,2,1.732-1Z" transform="translate(49.873 480.124)" fill="#a67545"/>
      <path id="Path_3277" data-name="Path 3277" d="M123.069-553.981l-1.732,1,3.464,2,1.732-1Z" transform="translate(-88.431 559.981)" fill="#a67545"/>
      <path id="Path_3278" data-name="Path 3278" d="M-36.018-451.981l-3.464-2,0,2,3.461,2Z" transform="translate(49.873 473.981)" fill="#8e643b"/>
      <path id="Path_3279" data-name="Path 3279" d="M121.338-459.124l1.732,1,3.464-2-1.732-1Z" transform="translate(-88.431 480.124)" fill="#a67545"/>
      <path id="Path_3280" data-name="Path 3280" d="M-39.482-551.981l1.732,1,3.464-2-1.732-1Z" transform="translate(49.873 559.981)" fill="#a67545"/>
      <path id="Path_3281" data-name="Path 3281" d="M137.172-453.981l-3.464,2v2l3.464-2Z" transform="translate(-99.07 473.981)" fill="#be864e"/>
      <g id="Group_2" data-name="Group 2" transform="translate(16.767 46.722)">
        <path id="Path_3282" data-name="Path 3282" d="M12.428-259.434v3.678l-6.37-3.678v-3.678Z" transform="translate(-6.058 263.111)" fill="#ccc"/>
        <g id="Group_1" data-name="Group 1" transform="translate(0.66 2.162)">
          <path id="Path_3283" data-name="Path 3283" d="M10.863-241.714c-.121-.21-.121-.439,0-.508s.319.045.44.254.121.439,0,.509S10.985-241.5,10.863-241.714Z" transform="translate(-10.772 243.002)" fill="#333"/>
          <path id="Path_3284" data-name="Path 3284" d="M18.354-247.147l.473.273v2.119l-.473-.274v-.25c-.143.125-.341.112-.6-.036a1.729,1.729,0,0,1-.632-.687,1.971,1.971,0,0,1-.26-.947.718.718,0,0,1,.26-.642.572.572,0,0,1,.632.038,1.494,1.494,0,0,1,.6.655Zm-.51,1.362a.356.356,0,0,0,.363.045.368.368,0,0,0,.147-.348,1,1,0,0,0-.147-.513.976.976,0,0,0-.363-.379.344.344,0,0,0-.363-.04.367.367,0,0,0-.143.345,1.039,1.039,0,0,0,.143.515A1,1,0,0,0,17.844-245.784Z" transform="translate(-16.011 247.668)" fill="#333"/>
          <path id="Path_3285" data-name="Path 3285" d="M34-238.466l.815.471v.513l-1.45-.838v-.364l.774-.795-.738-.426v-.513l1.376.8v.365Z" transform="translate(-30.199 241.433)" fill="#333"/>
        </g>
      </g>
    </g>
    <g id="Group_5" data-name="Group 5" transform="translate(-52.782 -580.444)">
      <path id="Path_3286" data-name="Path 3286" d="M414.219-452.3c.087.929.7,1.386,1.835,1.386a2.348,2.348,0,0,0,1.782-.738l1.378.885a4.428,4.428,0,0,1-3.494,1.578,3.338,3.338,0,0,1-2.74-1.106,3.282,3.282,0,0,1-.615-2.788,4.645,4.645,0,0,1,1.581-2.773,4.409,4.409,0,0,1,3-1.121,2.9,2.9,0,0,1,2.472,1.121,3.383,3.383,0,0,1,.573,2.773,5.465,5.465,0,0,1-.212.782Zm3.992-1.475a1.444,1.444,0,0,0-1.567-1.49,2.28,2.28,0,0,0-2.2,1.49Z" transform="translate(-399.577 460.162)" fill="#eda762"/>
      <path id="Path_3287" data-name="Path 3287" d="M472.126-468.966l1.9-10.768h1.9l-1.9,10.768Z" transform="translate(-451.034 479.734)" fill="#eda762"/>
      <path id="Path_3288" data-name="Path 3288" d="M498.151-467.97l1.3-7.375h1.9l-1.3,7.375Zm1.441-9.426a1.485,1.485,0,0,1,1.374-1.18.972.972,0,0,1,.972,1.18,1.47,1.47,0,0,1-1.385,1.165A.96.96,0,0,1,499.592-477.4Z" transform="translate(-473.416 478.738)" fill="#eda762"/>
      <path id="Path_3289" data-name="Path 3289" d="M533.244-455.5h2.095l-4.1,7.375h-2.168l-1.5-7.375h2.095l.874,5.163Z" transform="translate(-498.712 458.893)" fill="#eda762"/>
      <path id="Path_3290" data-name="Path 3290" d="M581.542-452.3c.087.929.7,1.386,1.835,1.386a2.348,2.348,0,0,0,1.782-.738l1.378.885a4.428,4.428,0,0,1-3.494,1.578,3.338,3.338,0,0,1-2.74-1.106,3.283,3.283,0,0,1-.615-2.788,4.645,4.645,0,0,1,1.581-2.773,4.409,4.409,0,0,1,3-1.121,2.9,2.9,0,0,1,2.472,1.121,3.384,3.384,0,0,1,.573,2.773,5.482,5.482,0,0,1-.212.782Zm3.992-1.475a1.444,1.444,0,0,0-1.566-1.49,2.28,2.28,0,0,0-2.2,1.49Z" transform="translate(-543.475 460.162)" fill="#eda762"/>
      <path id="Path_3291" data-name="Path 3291" d="M642.428-455.138a2.783,2.783,0,0,1,2.492-1.416l-.374,2.124a2.467,2.467,0,0,0-1.626.354,2.077,2.077,0,0,0-.947,1.519l-.622,3.525h-1.9l1.3-7.375h1.9Z" transform="translate(-594.931 459.799)" fill="#eda762"/>
      <path id="Path_3292" data-name="Path 3292" d="M682.661-455.5H684.7l-3.985,7.375c-1.142,2.124-2.544,3.053-4.414,2.95l.312-1.77a2.224,2.224,0,0,0,2.182-1.416l-1.765-7.139h2.08l1.044,4.956Z" transform="translate(-626.621 458.893)" fill="#eda762"/>
      <path id="Path_3293" data-name="Path 3293" d="M327.281-445.049h-5.813l.338-1.918h5.813Z" transform="translate(-321.469 451.555)" fill="#eda762"/>
      <path id="Path_3294" data-name="Path 3294" d="M345.053-475.084a3.917,3.917,0,0,0-3.278-1.49h-5.669l-.344,1.947h5.669a2.361,2.361,0,0,1,2.025.9,2.824,2.824,0,0,1,.432,2.316,3.96,3.96,0,0,1-1.252,2.331,3.4,3.4,0,0,1-2.339.885h-4.06l-.343,1.947h4.06a5.6,5.6,0,0,0,3.8-1.49,6.157,6.157,0,0,0,2.078-3.673A4.408,4.408,0,0,0,345.053-475.084Z" transform="translate(-333.762 477.016)" fill="#eda762"/>
      <g id="Group_4" data-name="Group 4" transform="translate(0 12.508)">
        <path id="Path_3295" data-name="Path 3295" d="M436.77-369.657a3.37,3.37,0,0,1,.576,2.758,4.737,4.737,0,0,1-1.551,2.773A3.982,3.982,0,0,1,433.06-363a2.354,2.354,0,0,1-2.2-1.077l-.674,3.82h-1.9l1.821-10.326h1.9l-.153.87a3.406,3.406,0,0,1,2.579-1.077A2.767,2.767,0,0,1,436.77-369.657Zm-3.744,4.838a2.341,2.341,0,0,0,1.562-.575,2.474,2.474,0,0,0,.855-1.5,1.718,1.718,0,0,0-.327-1.49,1.619,1.619,0,0,0-1.356-.59,2.294,2.294,0,0,0-1.565.59,2.461,2.461,0,0,0-.838,1.49,1.817,1.817,0,0,0,.31,1.5A1.66,1.66,0,0,0,433.025-364.819Z" transform="translate(-413.329 373.537)" fill="#333"/>
        <path id="Path_3296" data-name="Path 3296" d="M500.938-368.956a2.784,2.784,0,0,1,2.492-1.416l-.375,2.124a2.468,2.468,0,0,0-1.626.354,2.078,2.078,0,0,0-.947,1.52l-.622,3.525h-1.9l1.3-7.375h1.9Z" transform="translate(-473.25 373.175)" fill="#333"/>
        <path id="Path_3297" data-name="Path 3297" d="M536.778-366.117c.087.929.7,1.386,1.835,1.386a2.348,2.348,0,0,0,1.782-.737l1.378.885A4.428,4.428,0,0,1,538.279-363a3.338,3.338,0,0,1-2.74-1.106,3.282,3.282,0,0,1-.615-2.788,4.645,4.645,0,0,1,1.581-2.773,4.41,4.41,0,0,1,3-1.121,2.9,2.9,0,0,1,2.472,1.121,3.381,3.381,0,0,1,.573,2.773,5.423,5.423,0,0,1-.212.782Zm3.992-1.475a1.444,1.444,0,0,0-1.567-1.49,2.28,2.28,0,0,0-2.2,1.49Z" transform="translate(-504.977 373.537)" fill="#333"/>
        <path id="Path_3298" data-name="Path 3298" d="M595.061-367.68c1.038.221,2.348.737,2.055,2.316a2.513,2.513,0,0,1-1.165,1.755,4.081,4.081,0,0,1-2.216.6c-1.519,0-2.448-.59-2.788-1.755l1.816-.929a1.116,1.116,0,0,0,1.276.959c.679,0,1.055-.206,1.13-.634.07-.4-.481-.62-1.2-.811-1.042-.28-2.333-.737-2.063-2.272a2.531,2.531,0,0,1,1.1-1.711,3.626,3.626,0,0,1,2.118-.634,2.55,2.55,0,0,1,2.527,1.564l-1.779.885a.987.987,0,0,0-1.048-.753.9.9,0,0,0-.962.6C593.792-368.094,594.343-367.872,595.061-367.68Z" transform="translate(-553.22 373.537)" fill="#333"/>
        <path id="Path_3299" data-name="Path 3299" d="M640.791-367.68c1.038.221,2.348.737,2.055,2.316a2.514,2.514,0,0,1-1.165,1.755,4.081,4.081,0,0,1-2.216.6c-1.519,0-2.448-.59-2.788-1.755l1.816-.929a1.116,1.116,0,0,0,1.277.959c.678,0,1.054-.206,1.13-.634.07-.4-.481-.62-1.2-.811-1.042-.28-2.333-.737-2.063-2.272a2.532,2.532,0,0,1,1.1-1.711,3.627,3.627,0,0,1,2.118-.634,2.55,2.55,0,0,1,2.527,1.564l-1.779.885a.987.987,0,0,0-1.047-.753.9.9,0,0,0-.962.6C639.522-368.094,640.073-367.872,640.791-367.68Z" transform="translate(-592.548 373.537)" fill="#333"/>
        <path id="Path_3300" data-name="Path 3300" d="M323.848-382.012H328.2l-.343,1.947h-6.387l1.821-10.326H329.6l-.343,1.947h-4.278l-.388,2.2H328.5l-.338,1.918h-3.909Z" transform="translate(-321.469 390.391)" fill="#333"/>
        <path id="Path_3301" data-name="Path 3301" d="M378.586-361.944h-2.2l-1.2-2.242-2,2.242h-2.2l3.363-3.762-1.944-3.614h2.2l1.123,2.08,1.857-2.08h2.183l-3.216,3.6Z" transform="translate(-364.056 372.269)" fill="#333"/>
      </g>
    </g>
  </g>
</svg>
