<svg width="96" height="40" viewBox="0 0 96 40" fill="none" xmlns="http://www.w3.org/2000/svg">
<path d="M52.1057 17.233H48.1152V16.4761H56.9479V17.233H52.9575V27.5008H52.1057V17.233Z" fill="white"/>
<path d="M58.5729 27.5042V16.4634H59.4092V27.5042H58.5729Z" fill="white"/>
<path d="M71.4755 17.6939L67.2482 24.1603H66.9643L62.7054 17.6939V27.5042H61.8536V16.4634C62.264 16.4634 62.4531 16.4634 62.8629 16.4634L67.0901 22.8988L71.2696 16.4634H72.3105V27.5042H71.4748V17.6939H71.4755Z" fill="white"/>
<path d="M75.5767 21.5579H82.0431V22.331H75.5767V26.6841H82.5484V27.5042H74.7411V16.4634H82.3593V17.268H75.5767V21.5579Z" fill="white"/>
<path d="M91.8238 16.4795H92.7381V16.495L88.9845 21.8418L93.0382 27.4881V27.5036H92.029L88.4644 22.4561L84.8999 27.5036H83.8906V27.4881L87.9443 21.8418L84.1907 16.495V16.4795H85.1212L88.4651 21.1952L91.8238 16.4795Z" fill="white"/>
<path d="M4.45277 8.50312C5.07999 7.67005 5.75947 6.897 6.48349 6.18848C5.58396 7.00734 4.74767 7.92236 3.98946 8.9303C-2.60021 17.6862 -0.844382 30.1286 7.9115 36.7215C8.92589 37.4848 9.99191 38.1379 11.0921 38.6773C10.1907 38.1921 9.31758 37.6358 8.47484 37.0015C-0.504961 30.2428 -2.30596 17.4823 4.45277 8.50312Z" fill="white"/>
<path d="M20.2448 1.00874C20.0048 0.997772 19.7893 0.997126 19.6118 1.00681C19.8054 1.00293 20.0196 1.00358 20.2448 1.00874Z" fill="white"/>
<path d="M23.7521 1.67085C23.8031 1.63343 23.8289 1.59535 23.8276 1.55728C23.8263 1.51921 23.7973 1.48114 23.7411 1.44371C23.6843 1.40628 23.6004 1.3695 23.4869 1.33401C22.6628 1.15075 21.3142 1.03202 20.2456 1.00879C21.1768 1.05267 22.4899 1.26948 23.5217 1.7812C23.6237 1.74571 23.7011 1.70828 23.7521 1.67085Z" fill="white"/>
<path d="M26.1067 3.48554C26.4177 3.42811 26.8881 3.34099 27.2721 3.20678C28.3026 2.84735 27.6838 2.5673 27.4192 2.44792C26.9488 2.26337 26.3119 2.04397 25.835 1.87942C25.664 1.82651 25.4924 1.77553 25.3188 1.72778C25.1452 1.68003 24.9703 1.63486 24.7942 1.59227C24.6174 1.54968 24.4399 1.51032 24.2605 1.47354C24.0811 1.43676 23.9004 1.40256 23.7191 1.37158C26.6481 2.07043 26.4848 2.91253 26.1067 3.48554Z" fill="white"/>
<path d="M26.7286 6.18842C28.8774 5.95999 32.32 5.4386 31.2314 4.50746C30.4035 3.93831 30.3719 3.92154 28.7387 3.04137L28.2773 2.8252C29.7389 3.55824 30.4752 4.6991 26.7286 6.18842Z" fill="white"/>
<path d="M28.2774 2.8258C28.1728 2.77353 28.0651 2.7232 27.9547 2.6748L28.2774 2.8258Z" fill="white"/>
<path d="M24.8212 9.74233C31.5483 9.36484 35.2258 8.40659 34.4185 7.24185L33.9474 6.75982C33.3686 6.19455 32.5349 5.50603 31.9077 4.99561C33.086 5.96741 33.7339 7.87681 24.8212 9.74233Z" fill="white"/>
<path d="M20.6191 13.8397C30.3455 13.8823 37.6734 12.4123 36.9539 10.5623C36.6874 10.1293 36.2957 9.57498 36.0105 9.15361C35.735 8.76321 35.3175 8.28118 35.0193 7.9082C35.3517 8.30764 37.7637 11.869 20.6191 13.8397Z" fill="white"/>
<path d="M38.7541 14.3765C38.4605 13.6067 38.0217 12.5975 37.6752 11.8496L37.4216 11.3701C38.7819 14.7217 28.9374 17.6707 15.0089 18.0843C27.1938 19.0316 39.1774 17.1609 38.7541 14.3765Z" fill="white"/>
<path d="M39.7144 18.5864L39.6357 17.9856C39.5099 17.1693 39.2485 16.0969 39.0479 15.2954C39.8661 19.6311 24.2502 23.1802 9.20984 22.0761C22.1014 24.4598 39.4918 22.471 39.7144 18.5864Z" fill="white"/>
<path d="M39.8048 19.5962C39.7751 25.0224 18.0412 28.6747 4.56897 25.518C17.2876 29.8982 38.5091 27.6565 39.7267 23.0601C39.7816 22.5464 39.8074 21.8573 39.8396 21.3417C39.8622 20.8184 39.8171 20.1195 39.8048 19.5962Z" fill="white"/>
<path d="M31.3978 37.1545L32.2535 36.5163L32.9349 35.9536C30.5538 37.9256 26.7195 38.6787 25.0818 39C29.2323 38.4947 30.75 37.5559 31.3978 37.1545Z" fill="white"/>
<path d="M21.0426 37.5353C27.6194 37.4836 32.4074 36.3783 34.5259 34.4224L34.8485 34.0668C35.2537 33.6087 35.7461 32.957 36.121 32.4736C34.8653 34.0281 31.2381 36.7525 21.0426 37.5353Z" fill="white"/>
<path d="M15.5077 34.7806C25.4928 35.7588 34.745 34.1721 37.0293 31.0895C37.4997 30.3578 37.9694 29.2898 38.3334 28.5C36.4414 32.4137 26.8415 35.0548 15.5077 34.7806Z" fill="white"/>
<path d="M9.5769 30.6944C21.4805 33.2291 36.7738 31.4371 38.7974 27.2699C38.9994 26.642 39.2194 25.7902 39.3859 25.152L39.575 24.1699C38.7606 28.5482 24.474 32.4986 9.5769 30.6944Z" fill="white"/>
</svg>
