<svg id="local_offer-24px" xmlns="http://www.w3.org/2000/svg" width="32" height="32" viewBox="0 0 32 32">
  <path id="Path_3399" data-name="Path 3399" d="M0,0H32V32H0Z" fill="none"/>
  <path id="Path_3400" data-name="Path 3400" d="M29.174,15.412l-12.6-12.6A2.782,2.782,0,0,0,14.6,2H4.8A2.808,2.808,0,0,0,2,4.8v9.8a2.794,2.794,0,0,0,.826,1.988l12.6,12.6A2.782,2.782,0,0,0,17.4,30a2.737,2.737,0,0,0,1.974-.826l9.8-9.8A2.737,2.737,0,0,0,30,17.4,2.828,2.828,0,0,0,29.174,15.412ZM6.9,9A2.1,2.1,0,1,1,9,6.9,2.1,2.1,0,0,1,6.9,9Z" transform="translate(0 0)" fill="#eda762"/>
</svg>
