<svg width="24" height="24" viewBox="0 0 24 24" fill="none" xmlns="http://www.w3.org/2000/svg">
<path d="M13 2.02979C17.73 2.49979 21.5 6.24979 21.9501 10.9998C22.5 16.4998 18.5 21.3798 13 21.9298V19.9298C16.64 19.4998 19.5 16.6098 19.96 12.9698C20.5 8.57979 17.39 4.58979 13 4.04979V2.04979V2.02979ZM11 2.05979V4.05979C9.57005 4.25979 8.22005 4.83979 7.10005 5.73978L5.67005 4.25979C7.19005 2.99979 9.05005 2.24979 11 2.05979ZM4.26005 5.66979L5.69005 7.09978C4.80005 8.22978 4.24005 9.57979 4.05005 10.9998H2.05005C2.25005 9.03979 3.00005 7.18979 4.26005 5.66979ZM2.06005 12.9998H4.06005C4.24005 14.4198 4.81005 15.7698 5.69005 16.8998L4.27005 18.3298C3.03005 16.8098 2.26005 14.9598 2.06005 12.9998ZM7.10005 18.3698C8.23005 19.2498 9.58005 19.8198 11 19.9998V21.9998C9.04005 21.7898 7.18005 20.9998 5.67005 19.7398L7.10005 18.3698ZM12 16.4998L7.50005 11.9998H11V7.99979H13V11.9998H16.5L12 16.4998Z" fill="#042844"/>
</svg>
