<svg width="72" height="72" viewBox="0 0 72 72" fill="none" xmlns="http://www.w3.org/2000/svg">
<circle cx="36" cy="36" r="36" fill="#FFA14A"/>
<path d="M42.9109 40.888C42.9109 41.912 42.6549 42.8933 42.1429 43.832C41.6309 44.7493 40.8735 45.5173 39.8709 46.136C38.8895 46.7547 37.7055 47.1067 36.3189 47.192V49.784H34.5909V47.192C32.6495 47.0213 31.0709 46.4027 29.8549 45.336C28.6389 44.248 28.0202 42.872 27.9989 41.208H31.1029C31.1882 42.104 31.5189 42.8827 32.0949 43.544C32.6922 44.2053 33.5242 44.6213 34.5909 44.792V36.792C33.1615 36.4293 32.0095 36.056 31.1349 35.672C30.2602 35.288 29.5135 34.6907 28.8949 33.88C28.2762 33.0693 27.9669 31.9813 27.9669 30.616C27.9669 28.888 28.5642 27.4587 29.7589 26.328C30.9749 25.1973 32.5855 24.568 34.5909 24.44V21.784H36.3189V24.44C38.1322 24.5893 39.5935 25.176 40.7029 26.2C41.8122 27.2027 42.4522 28.5147 42.6229 30.136H39.5189C39.4122 29.3893 39.0815 28.7173 38.5269 28.12C37.9722 27.5013 37.2362 27.096 36.3189 26.904V34.712C37.7269 35.0747 38.8682 35.448 39.7429 35.832C40.6389 36.1947 41.3855 36.7813 41.9829 37.592C42.6015 38.4027 42.9109 39.5013 42.9109 40.888ZM30.9429 30.456C30.9429 31.5013 31.2522 32.3013 31.8709 32.856C32.4895 33.4107 33.3962 33.8693 34.5909 34.232V26.84C33.4815 26.9467 32.5962 27.3093 31.9349 27.928C31.2735 28.5253 30.9429 29.368 30.9429 30.456ZM36.3189 44.824C37.4709 44.696 38.3669 44.28 39.0069 43.576C39.6682 42.872 39.9989 42.0293 39.9989 41.048C39.9989 40.0027 39.6789 39.2027 39.0389 38.648C38.3989 38.072 37.4922 37.6133 36.3189 37.272V44.824Z" fill="white"/>
</svg>
