<svg xmlns="http://www.w3.org/2000/svg" width="24" height="24" viewBox="0 0 24 24">
  <g id="shopping_basket-24px" style="isolation: isolate">
    <path id="Path_3257" data-name="Path 3257" d="M0,0H24V24H0Z" fill="none"/>
    <path id="Path_3258" data-name="Path 3258" d="M22,9H17.21L12.83,2.44A.993.993,0,0,0,12,2.02a.977.977,0,0,0-.83.43L6.79,9H2a1,1,0,0,0-1,1,.842.842,0,0,0,.04.27l2.54,9.27A1.989,1.989,0,0,0,5.5,21h13a2.01,2.01,0,0,0,1.93-1.46l2.54-9.27L23,10A1,1,0,0,0,22,9ZM12,4.8,14.8,9H9.2ZM18.5,19l-12.99.01L3.31,11H20.7ZM12,13a2,2,0,1,0,2,2A2.006,2.006,0,0,0,12,13Z" fill="#eda762"/>
  </g>
</svg>
