<svg width="48" height="48" viewBox="0 0 48 48" fill="none" xmlns="http://www.w3.org/2000/svg">
<circle cx="24" cy="24" r="24" fill="#E62150" fill-opacity="0.1"/>
<path d="M31 18H29C29 15.2 26.8 13 24 13C21.2 13 19 15.2 19 18H17C15.9 18 15 18.9 15 20V32C15 33.1 15.9 34 17 34H31C32.1 34 33 33.1 33 32V20C33 18.9 32.1 18 31 18ZM24 15C25.7 15 27 16.3 27 18H21C21 16.3 22.3 15 24 15ZM31 32H17V20H31V32ZM24 24C22.3 24 21 22.7 21 21H19C19 23.8 21.2 26 24 26C26.8 26 29 23.8 29 21H27C27 22.7 25.7 24 24 24Z" fill="#E62150"/>
</svg>
