<svg width="32" height="32" viewBox="0 0 32 32" fill="none" xmlns="http://www.w3.org/2000/svg">
<mask id="mask0" mask-type="alpha" maskUnits="userSpaceOnUse" x="0" y="0" width="32" height="32">
<path d="M32 16C32 7.16344 24.8366 0 16 0C7.16344 0 0 7.16344 0 16C0 24.8366 7.16344 32 16 32C24.8366 32 32 24.8366 32 16Z" fill="white"/>
</mask>
<g mask="url(#mask0)">
<path d="M46 0H-2V32H46V0Z" fill="#E30A17"/>
<path d="M15 8C17.847 8 20.3466 9.48717 21.7645 11.727C20.5928 10.4212 18.8923 9.6 17 9.6C13.4654 9.6 10.6 12.4654 10.6 16C10.6 19.5346 13.4654 22.4 17 22.4C18.8923 22.4 20.5928 21.5788 21.7645 20.2732C20.3466 22.5128 17.847 24 15 24C10.5817 24 7 20.4183 7 16C7 11.5817 10.5817 8 15 8ZM21.3334 16L28.5694 18.3512L24.0972 12.1958V19.8042L28.5694 13.6488L21.3334 16Z" fill="white"/>
</g>
</svg>
