<svg xmlns="http://www.w3.org/2000/svg" width="20" height="20" viewBox="0 0 20 20">
  <path id="Path_3351" data-name="Path 3351" d="M104.62,6.8v20h20V6.8Zm14.566,7.8c.005.1.007.2.007.3a6.486,6.486,0,0,1-6.441,6.531h-.09a6.5,6.5,0,0,1-3.518-1.031,4.751,4.751,0,0,0,.547.032,4.61,4.61,0,0,0,2.851-.983,2.3,2.3,0,0,1-2.144-1.594,2.3,2.3,0,0,0,1.037-.039,2.3,2.3,0,0,1-1.841-2.25v-.029a2.285,2.285,0,0,0,1.04.287,2.3,2.3,0,0,1-.714-3.072,6.519,6.519,0,0,0,4.731,2.4,2.3,2.3,0,0,1,3.911-2.093,4.611,4.611,0,0,0,1.458-.559,2.306,2.306,0,0,1-1.009,1.27,4.607,4.607,0,0,0,1.318-.361A4.673,4.673,0,0,1,119.186,14.6Z" transform="translate(-104.62 -6.797)" fill="#eda762"/>
</svg>
