<svg width="32" height="32" viewBox="0 0 32 32" fill="none" xmlns="http://www.w3.org/2000/svg">
<mask id="mask0" mask-type="alpha" maskUnits="userSpaceOnUse" x="0" y="0" width="32" height="32">
<path d="M32 16C32 7.16344 24.8366 0 16 0C7.16344 0 0 7.16344 0 16C0 24.8366 7.16344 32 16 32C24.8366 32 32 24.8366 32 16Z" fill="white"/>
</mask>
<g mask="url(#mask0)">
<path d="M62.3846 -1H-3V33H62.3846V-1Z" fill="#B22234"/>
<path d="M-3 2.99219H62.3846H-3ZM62.3846 8.20179H-3H62.3846ZM-3 13.4114H62.3846H-3ZM62.3846 18.621H-3H62.3846ZM-3 23.8306H62.3846H-3ZM62.3846 29.0402H-3H62.3846Z" fill="black"/>
<path d="M62.3846 29.0402H-3M-3 2.99219H62.3846H-3ZM62.3846 8.20179H-3H62.3846ZM-3 13.4114H62.3846H-3ZM62.3846 18.621H-3H62.3846ZM-3 23.8306H62.3846H-3Z" stroke="white" stroke-width="2.5"/>
<path d="M23.1538 -1H-3V17.3077H23.1538V-1Z" fill="#3C3B6E"/>
<path d="M3.61273 2.76367L4.22804 4.70898L2.61713 3.50671H4.60832L2.99742 4.70898L3.61273 2.76367ZM3.61273 6.52735L4.22804 8.47265L2.61713 7.27039H4.60832L2.99742 8.47265L3.61273 6.52735ZM3.61273 10.291L4.22804 12.2363L2.61713 11.0341H4.60832L2.99742 12.2363L3.61273 10.291ZM5.76746 4.64551L6.38277 6.59081L4.77186 5.38855H6.76305L5.15214 6.59081L5.76746 4.64551ZM5.76746 8.40919L6.38277 10.3545L4.77186 9.15223H6.76305L5.15214 10.3545L5.76746 8.40919ZM5.76746 12.1729L6.38277 14.1182L4.77186 12.9159H6.76305L5.15214 14.1182L5.76746 12.1729ZM12.2316 2.76367L12.8469 4.70898L11.236 3.50671H13.2272L11.6163 4.70898L12.2316 2.76367ZM12.2316 6.52735L12.8469 8.47265L11.236 7.27039H13.2272L11.6163 8.47265L12.2316 6.52735ZM12.2316 10.291L12.8469 12.2363L11.236 11.0341H13.2272L11.6163 12.2363L12.2316 10.291ZM14.3864 4.64551L15.0017 6.59081L13.3908 5.38855H15.382L13.7711 6.59081L14.3864 4.64551ZM14.3864 8.40919L15.0017 10.3545L13.3908 9.15223H15.382L13.7711 10.3545L14.3864 8.40919ZM14.3864 12.1729L15.0017 14.1182L13.3908 12.9159H15.382L13.7711 14.1182L14.3864 12.1729ZM-0.696726 2.76367L-0.0814145 4.70898L-1.69232 3.50671H0.298869L-1.31204 4.70898L-0.696726 2.76367ZM-0.696726 6.52735L-0.0814145 8.47265L-1.69232 7.27039H0.298869L-1.31204 8.47265L-0.696726 6.52735ZM-0.696726 10.291L-0.0814145 12.2363L-1.69232 11.0341H0.298869L-1.31204 12.2363L-0.696726 10.291ZM1.458 4.64551L2.07331 6.59081L0.462405 5.38855H2.4536L0.842689 6.59081L1.458 4.64551ZM1.458 8.40919L2.07331 10.3545L0.462405 9.15223H2.4536L0.842689 10.3545L1.458 8.40919ZM1.458 12.1729L2.07331 14.1182L0.462405 12.9159H2.4536L0.842689 14.1182L1.458 12.1729ZM3.61273 -1L4.22804 0.9453L2.61713 -0.256961H4.60832L2.99742 0.9453L3.61273 -1ZM3.61273 14.0547L4.22804 16L2.61713 14.7977H4.60832L2.99742 16L3.61273 14.0547ZM5.76746 0.881837L6.38277 2.82714L4.77186 1.62488H6.76305L5.15214 2.82714L5.76746 0.881837ZM7.92218 2.76367L8.53749 4.70898L6.92659 3.50671H8.91778L7.30687 4.70898L7.92218 2.76367ZM7.92218 6.52735L8.53749 8.47265L6.92659 7.27039H8.91778L7.30687 8.47265L7.92218 6.52735ZM7.92218 10.291L8.53749 12.2363L6.92659 11.0341H8.91778L7.30687 12.2363L7.92218 10.291ZM10.0769 4.64551L10.6922 6.59081L9.08131 5.38855H11.0725L9.4616 6.59081L10.0769 4.64551ZM10.0769 8.40919L10.6922 10.3545L9.08131 9.15223H11.0725L9.4616 10.3545L10.0769 8.40919ZM10.0769 12.1729L10.6922 14.1182L9.08131 12.9159H11.0725L9.4616 14.1182L10.0769 12.1729ZM12.2316 -1L12.8469 0.9453L11.236 -0.256961H13.2272L11.6163 0.9453L12.2316 -1ZM12.2316 14.0547L12.8469 16L11.236 14.7977H13.2272L11.6163 16L12.2316 14.0547ZM14.3864 0.881837L15.0017 2.82714L13.3908 1.62488H15.382L13.7711 2.82714L14.3864 0.881837ZM-0.696726 -1L-0.0814145 0.9453L-1.69232 -0.256961H0.298869L-1.31204 0.9453L-0.696726 -1ZM-0.696726 14.0547L-0.0814145 16L-1.69232 14.7977H0.298869L-1.31204 16L-0.696726 14.0547ZM1.458 0.881837L2.07331 2.82714L0.462405 1.62488H2.4536L0.842689 2.82714L1.458 0.881837ZM7.92218 -1L8.53749 0.9453L6.92659 -0.256961H8.91778L7.30687 0.9453L7.92218 -1ZM7.92218 14.0547L8.53749 16L6.92659 14.7977H8.91778L7.30687 16L7.92218 14.0547ZM10.0769 0.881837L10.6922 2.82714L9.08131 1.62488H11.0725L9.4616 2.82714L10.0769 0.881837ZM16.5411 2.76367L17.1564 4.70898L15.5455 3.50671H17.5367L15.9258 4.70898L16.5411 2.76367ZM16.5411 6.52735L17.1564 8.47265L15.5455 7.27039H17.5367L15.9258 8.47265L16.5411 6.52735ZM16.5411 10.291L17.1564 12.2363L15.5455 11.0341H17.5367L15.9258 12.2363L16.5411 10.291ZM16.5411 -1L17.1564 0.9453L15.5455 -0.256961H17.5367L15.9258 0.9453L16.5411 -1ZM16.5411 14.0547L17.1564 16L15.5455 14.7977H17.5367L15.9258 16L16.5411 14.0547ZM18.6958 12.1729L19.3111 14.1182L17.7002 12.9159H19.6914L18.0805 14.1182L18.6958 12.1729ZM18.6958 8.40919L19.3111 10.3545L17.7002 9.15223H19.6914L18.0805 10.3545L18.6958 8.40919ZM18.6958 4.64551L19.3111 6.59081L17.7002 5.38855H19.6914L18.0805 6.59081L18.6958 4.64551ZM18.6958 0.881837L19.3111 2.82714L17.7002 1.62488H19.6914L18.0805 2.82714L18.6958 0.881837ZM20.8505 6.52735L21.4659 8.47265L19.8549 7.27039H21.8461L20.2352 8.47265L20.8505 6.52735ZM20.8505 10.291L21.4659 12.2363L19.8549 11.0341H21.8461L20.2352 12.2363L20.8505 10.291ZM20.8505 2.76367L21.4659 4.70898L19.8549 3.50671H21.8461L20.2352 4.70898L20.8505 2.76367ZM20.8505 -1L21.4659 0.9453L19.8549 -0.256961H21.8461L20.2352 0.9453L20.8505 -1ZM20.8505 14.0547L21.4659 16L19.8549 14.7977H21.8461L20.2352 16L20.8505 14.0547Z" fill="white"/>
</g>
</svg>
